<svg version="1.2" xmlns="http://www.w3.org/2000/svg" viewBox="0 0 2668 2668" width="2668" height="2668">
	<title>Al Khawarizmi IT Club</title>
	<style>
		.s0 { fill: #205375 } 
		.s1 { fill: #112b3c } 
	</style>
	<g id="V3">
		<g id="Light">
			<path id="- IT &amp; Robotics Club - copy" class="s0" aria-label="- IT &amp; Robotics Club -"  d="m885.5 2178.3h-36.3v-11.1h36.3zm48.4 21.7h-12.3v-74.9h12.3zm47.4 0h-12.3v-72.8h12.3zm24.4-63.7h-61.1v-11.2h61.1zm92.7 63.7h-14.1l-35.5-38.9q-4-4.4-6-8.3-1.9-4-1.9-8.8 0-5.7 2.8-10.1 2.7-4.7 7.5-7.3 4.9-2.7 11.1-2.7 4.7 0 8.5 1.6 3.9 1.5 6.8 4.1 3 2.4 4.9 5.4l-8.5 7.5q-2.3-3.2-5.1-5.2-2.7-2.1-6.6-2.1-4.1 0-6.9 2.5-2.8 2.4-2.8 6 0 3.6 1.5 6 1.5 2.3 4.2 5.4zm-39.7 1.1q-7.7 0-13.5-2.9-5.6-3-8.9-8.1-3.1-5.3-3.1-11.9 0-6.7 3.7-12.1 3.7-5.3 10.9-8.6l5.5 7.1q-4 2.2-6.1 5.4-2.2 3.1-2.2 7.9 0 3.8 1.7 6.5 1.8 2.7 5.1 4.2 3.2 1.4 7.3 1.4 5.5 0 9-2.3 3.7-2.2 5.5-5.3l7.7 9q-2.3 2.8-5.8 5-3.5 2.1-7.8 3.4-4.3 1.3-9 1.3zm94.3-32.8h-19.6v-10.2h18.9q5.7 0 8.8-2.9 3.2-3 3.2-8.2 0-4.7-3.1-7.9-3.1-3.3-8.8-3.3h-19v-10.7h19.6q7 0 12.4 2.9 5.3 2.8 8.2 7.7 3 4.9 3 11.1 0 6.5-3 11.3-2.9 4.8-8.2 7.5-5.4 2.7-12.4 2.7zm-15.7 31.7h-12.4v-74.9h12.4zm44.2 0h-15.5l-26.2-32.5 11.5-4.2zm29.5 1.1q-7.5 0-13.6-3.5-6.1-3.7-9.7-9.8-3.6-6.1-3.6-13.5 0-7.5 3.6-13.5 3.6-6 9.7-9.5 6.1-3.7 13.6-3.7 7.6 0 13.7 3.5 6.1 3.6 9.6 9.7 3.7 6 3.7 13.5 0 7.4-3.7 13.5-3.5 6.1-9.6 9.8-6.1 3.5-13.7 3.5zm0-11.3q4.4 0 7.7-2 3.4-2 5.2-5.5 2-3.6 2-8 0-4.5-2-8-1.9-3.4-5.2-5.3-3.3-2-7.7-2-4.3 0-7.7 2-3.3 1.9-5.2 5.3-1.9 3.5-1.9 8 0 4.4 1.9 8 1.9 3.5 5.2 5.5 3.4 2 7.7 2zm64.2 11.3q-5.9 0-10.5-2.4-4.6-2.6-7.3-7-2.5-4.4-2.5-10v-14.7q0-5.6 2.6-10 2.7-4.4 7.3-6.8 4.6-2.6 10.4-2.6 7 0 12.5 3.7 5.7 3.5 8.9 9.6 3.3 6 3.3 13.6 0 7.5-3.3 13.6-3.2 6-8.9 9.5-5.5 3.5-12.5 3.5zm-1.9-11.1q4.3 0 7.5-1.9 3.3-2.1 5.1-5.6 1.9-3.5 1.9-8.1 0-4.6-1.9-8.2-1.8-3.5-5.1-5.4-3.2-2.1-7.5-2.1-4.3 0-7.6 2.1-3.3 1.9-5.2 5.4-1.8 3.6-1.8 8.2 0 4.6 1.8 8.1 1.9 3.5 5.2 5.6 3.3 1.9 7.6 1.9zm-13.8 10h-11.8v-77h11.8v38.3l-2.1 12.4 2.1 12.5zm73.8 1.1q-7.5 0-13.6-3.5-6.1-3.7-9.7-9.8-3.6-6.1-3.6-13.5 0-7.5 3.6-13.5 3.6-6 9.7-9.6 6.1-3.6 13.6-3.6 7.6 0 13.7 3.5 6.1 3.6 9.6 9.7 3.7 6 3.7 13.5 0 7.4-3.7 13.5-3.5 6.1-9.6 9.8-6.1 3.5-13.7 3.5zm0-11.3q4.4 0 7.7-2 3.4-2 5.2-5.5 2-3.6 2-8 0-4.5-2-8-1.9-3.4-5.2-5.3-3.3-2-7.7-2-4.3 0-7.7 2-3.3 1.9-5.2 5.3-1.9 3.5-1.9 8 0 4.4 1.9 8 1.9 3.5 5.2 5.5 3.4 2 7.7 2zm54.8 10.2h-11.8v-72.7h11.8zm12.3-40.7h-36.4v-10.7h36.4zm20.4 40.7h-11.7v-51.4h11.7zm-5.9-60.8q-3 0-5-2-1.9-2-1.9-5 0-3 1.9-5 2-2.1 5-2.1 3.1 0 5.1 2.1 1.9 2 1.9 5 0 3-1.9 5-2 2-5.1 2zm42.7 61.9q-7.6 0-13.8-3.5-6.1-3.6-9.6-9.7-3.5-6.1-3.5-13.6 0-7.6 3.5-13.5 3.5-6.1 9.6-9.7 6.2-3.5 13.8-3.5 6 0 11.2 2.3 5.2 2.3 8.8 6.6l-7.7 7.8q-2.2-2.7-5.4-4-3.1-1.4-6.9-1.4-4.4 0-7.8 2.1-3.3 1.9-5.2 5.3-1.8 3.4-1.8 8 0 4.5 1.8 8.1 1.9 3.4 5.2 5.4 3.4 1.9 7.8 1.9 3.8 0 6.9-1.2 3.2-1.4 5.4-4.1l7.7 7.8q-3.6 4.3-8.8 6.6-5.2 2.3-11.2 2.3zm45.3 0q-4.3 0-8.2-1.1-4-1.2-7.3-3.2-3.3-2.1-5.8-5.1l7.5-7.5q2.7 3.1 6.1 4.7 3.5 1.5 7.9 1.5 4 0 6-1.2 2-1.2 2-3.4 0-2.4-1.9-3.6-1.9-1.3-5-2.2-3-1-6.4-1.9-3.4-1-6.5-2.6-3-1.7-4.9-4.6-1.9-2.9-1.9-7.5 0-4.9 2.2-8.4 2.4-3.6 6.6-5.5 4.2-1.9 10.1-1.9 6.2 0 10.9 2.2 4.9 2.2 8.1 6.6l-7.5 7.5q-2.3-2.8-5.2-4.2-2.8-1.4-6.6-1.4-3.5 0-5.4 1.1-2 1-2 3.1 0 2.1 2 3.3 1.9 1.2 4.9 2 3.1 0.9 6.4 1.9 3.4 1 6.4 2.8 3.1 1.7 5 4.7 2 2.9 2 7.6 0 7.5-5.3 11.9-5.2 4.4-14.2 4.4zm86.2 0q-8.1 0-15-2.9-6.9-3-12-8.2-5.2-5.4-8-12.3-2.7-7.1-2.7-15.1 0-8.1 2.7-15 2.8-7.1 8-12.3 5.1-5.3 12-8.3 6.9-3 15-3 9.1 0 15.8 3 6.6 3 11.7 8.2l-8.3 8.3q-3.3-3.6-8.1-5.6-4.7-2.1-11.1-2.1-5.5 0-10.1 1.9-4.6 2-8.1 5.6-3.3 3.5-5.1 8.5-1.8 4.9-1.8 10.8 0 5.9 1.8 10.8 1.8 4.9 5.1 8.5 3.5 3.6 8.1 5.5 4.6 1.9 10.1 1.9 6.9 0 11.6-2 4.8-2.2 8.1-5.8l8.4 8.4q-5.2 5.2-12.1 8.2-7 3-16 3zm49.3-1.1h-11.8v-77h11.8zm34.1 1q-6.5 0-11.7-2.8-5-2.9-7.9-8-2.8-5.1-2.8-11.7v-29.9h11.8v29.3q0 3.8 1.2 6.5 1.3 2.5 3.6 3.9 2.5 1.4 5.8 1.4 5.1 0 7.8-3 2.8-3.1 2.8-8.8v-29.3h11.8v29.9q0 6.7-2.9 11.8-2.8 5.1-7.8 8-5.1 2.7-11.7 2.7zm61.7 0q-5.9 0-10.5-2.4-4.6-2.6-7.2-7-2.6-4.4-2.6-9.9v-14.8q0-5.5 2.7-9.9 2.6-4.4 7.3-6.9 4.6-2.6 10.3-2.6 7 0 12.5 3.7 5.7 3.5 8.9 9.6 3.3 6 3.3 13.6 0 7.5-3.3 13.6-3.2 6-8.9 9.5-5.5 3.5-12.5 3.5zm-1.9-11.1q4.3 0 7.5-1.9 3.3-2 5.1-5.6 2-3.5 2-8.1 0-4.6-2-8.1-1.8-3.6-5.1-5.5-3.2-2-7.5-2-4.3 0-7.6 2-3.3 1.9-5.1 5.5-1.8 3.5-1.8 8.1 0 4.6 1.8 8.1 1.8 3.6 5.1 5.6 3.3 1.9 7.6 1.9zm-13.8 10.1h-11.8v-77.1h11.8v38.3l-2 12.5 2 12.5zm108-21.7h-36.3v-11.2h36.3z"/>
			<path id="AL KHAWARIZMI copy" class="s1" aria-label="AL KHAWARIZMI"  d="m809 2051.5c0 5.8 4.6 10.5 10.4 10.5 4.8 0 8.8-3 10.1-7.4l3.9-12.8h32.7l3.9 12.6c1.5 4.3 5.6 7.6 10.5 7.6 6 0 10.9-5 10.9-11 0-1.2-0.2-2.4-0.6-3.6l-22.6-65.2c-2.5-7.5-9.6-12.8-17.8-12.8-8.4 0-15.5 5.3-18 12.8l-22.8 66c-0.4 1-0.6 2.1-0.6 3.3zm30.1-27.5l5.7-18.3c1.8-5.8 2.9-10 4.2-15.3h1.5c1.3 5.3 2.4 9.5 4.2 15.3l5.7 18.3zm64.6 26.8c0 6.6 3.6 10.2 10.2 10.2h44.5c5.2 0 9.4-4.2 9.4-9.5 0-5.1-4.2-9.3-9.4-9.3h-31.7v-61.2c0-6.4-5.1-11.6-11.5-11.6-6.3 0-11.5 5.2-11.5 11.6zm105.5-0.2c0 6.3 5 11.3 11.3 11.3 6.3 0 11.4-5 11.4-11.3v-13.2l9.9-12.2 19.7 31.4c2 3.2 5.6 5.3 9.7 5.3 6.3 0 11.3-5 11.3-11.4 0-2.3-0.7-4.3-1.8-6.1l-23.4-36.6 18.4-22.8c1.3-1.6 2.1-3.7 2.1-6 0-5.3-4.3-9.6-9.6-9.6-3 0-5.9 1.6-7.5 3.7l-28.8 37v-29.4c0-6.3-5.1-11.3-11.4-11.3-6.3 0-11.3 5-11.3 11.3zm92.4-0.3c0 6.4 5.1 11.6 11.5 11.6 6.4 0 11.5-5.2 11.5-11.6v-26.4h33.1v26.4c0 6.4 5.2 11.6 11.6 11.6 6.3 0 11.5-5.2 11.5-11.6v-69.4c0-6.4-5.2-11.6-11.5-11.6-6.4 0-11.6 5.2-11.6 11.6v24.3h-33.1v-24.3c0-6.4-5.1-11.6-11.5-11.6-6.4 0-11.5 5.2-11.5 11.6zm91.4 1c0 5.8 4.7 10.5 10.5 10.5 4.8 0 8.7-3 10-7.3l4-12.9h32.6l4 12.6c1.4 4.3 5.5 7.6 10.4 7.6 6 0 11-4.9 11-10.9 0-1.2-0.3-2.4-0.6-3.6l-22.6-65.3c-2.5-7.5-9.6-12.7-17.9-12.7-8.4 0-15.5 5.2-18 12.7l-22.8 66c-0.3 1.1-0.6 2.1-0.6 3.3zm30.1-27.4l5.8-18.4c1.8-5.8 2.9-10 4.2-15.2h1.4c1.3 5.2 2.4 9.4 4.2 15.2l5.8 18.4zm60-43.5c0 0.9 0.1 1.6 0.2 2.4l14.9 65.5c1.7 7.7 8.5 13.5 16.7 13.5 8 0 14.8-5.4 16.7-13l11.3-44.5 11.2 44.5c2 7.6 8.8 13 16.8 13 8.3 0 15.3-5.8 17-13.5l15-66.4c0.1-0.8 0.2-1.6 0.2-2.3 0-5.8-4.6-10.3-10.3-10.3-4.9 0-9.1 3.6-10.1 8.1l-12.2 57.4-14.6-56.2c-1.3-5.3-6.2-9.3-12-9.3-5.8 0-10.8 4-12.1 9.3l-14.6 56.7-12.1-57.3c-1.1-5-5.6-8.7-11-8.7-6.1 0-11 4.9-11 11.1zm127.4 70.9c0 5.8 4.7 10.5 10.5 10.5 4.8 0 8.7-3 10.1-7.3l3.9-12.9h32.7l3.9 12.6c1.5 4.3 5.5 7.6 10.5 7.6 6 0 10.9-4.9 10.9-10.9 0-1.2-0.3-2.4-0.6-3.6l-22.6-65.3c-2.5-7.5-9.6-12.7-17.9-12.7-8.4 0-15.4 5.2-18 12.7l-22.8 66c-0.3 1.1-0.6 2.1-0.6 3.3zm30.2-27.4l5.7-18.4c1.8-5.8 2.9-10 4.2-15.2h1.5c1.3 5.2 2.3 9.4 4.2 15.2l5.7 18.4zm64.6 26.4c0 6.3 5.1 11.5 11.5 11.5 6.4 0 11.5-5.2 11.5-11.5v-20.4h12.1l13.5 25.9c1.8 3.6 5.6 6 9.8 6 6.3 0 11.2-4.9 11.2-11.1 0-1.9-0.5-3.7-1.3-5.1l-11.3-21.7v-0.3c9.9-4.9 16.1-13.7 16.1-25.7 0-17.7-12.9-27.7-33.5-27.7h-29.4c-6.6 0-10.2 3.6-10.2 10.2zm23-38.6v-24.5h11.7c7.8 0 14.7 2.2 14.7 12.4 0 9.9-6.9 12.1-14.7 12.1zm63.7 38.6c0 6.4 5.1 11.5 11.5 11.5 6.4 0 11.5-5.1 11.5-11.5v-69.5c0-6.3-5.1-11.5-11.5-11.5-6.4 0-11.5 5.2-11.5 11.5zm35.9 1.1c0 5.3 4.3 9.5 9.4 9.5h56.6c5 0 9.1-4.1 9.1-9.1 0-5.1-4.1-9.1-9.1-9.1h-36.5l42.2-56.7c1.2-1.5 1.9-3.7 1.9-5.9 0-5.4-4.4-9.8-9.8-9.8h-52.4c-5.1 0-9.2 4.1-9.2 9.1 0 5.1 4.1 9.1 9.2 9.1h32.8l-42.4 57.3c-1.2 1.5-1.8 3.5-1.8 5.6zm87.9-0.2c0 5.9 4.8 10.7 10.8 10.7 5.9 0 10.7-4.8 10.7-10.7v-51.5h0.7c0.3 1.6 0.6 3.2 1 4.9 0.6 2.9 1.7 6.9 3 10.7l13.5 38.5c1.6 4.6 6 8.1 11.3 8.1 5.2 0 9.7-3.5 11.3-8.1l13.4-38.5c1.4-3.8 2.4-7.7 3-10.7l1-4.9h0.7v51c0 6.1 5.1 11.2 11.2 11.2 6.2 0 11.3-5.1 11.3-11.2v-64.3c0-9.4-7.7-17.1-17.1-17.1-7.4 0-13.9 4.8-16.2 11.4l-14.3 41c-1.2 3.3-1.8 6-2.2 8l-0.6 3.4h-0.8l-0.6-3.4c-0.3-2-1-4.8-2.1-8l-14.3-40.5c-2.4-6.9-9-11.9-16.8-11.9-9.8 0-17.9 8.1-17.9 17.9zm120.9-0.8c0 6.3 5.1 11.5 11.5 11.5 6.3 0 11.5-5.2 11.5-11.5v-69.5c0-6.4-5.2-11.5-11.5-11.5-6.4 0-11.5 5.1-11.5 11.5z"/>
			<path id="Light" fill-rule="evenodd" class="s1" d="m695.1 1145.3c37.9-41.3 105.6-41.3 144.9 0.8 9.3 9.9 356.8 522.6 365.4 535.3 46.6 68.3 0.5 159.6-80.9 159.6-13.6 0-691 0-715.5 0-81 0-128-91.3-82-159.6 11.4-16.8 361.6-529.2 368.1-536.1zm1134 0c37.9-41.3 105.6-41.3 144.9 0.8 9.3 9.9 356.8 522.6 365.4 535.3 46.6 68.3 0.5 159.6-80.9 159.6-13.6 0-691 0-715.5 0-81 0-128-91.3-82-159.6 11.4-16.8 361.6-529.2 368.1-536.1zm-939.1-284.3c4.1-6.5 361.6-528.8 361.6-528.8 41-57.6 126.4-57.6 164 0 0 0 358.3 520 363.4 528.8 18 26.8 18 75 0 101-4.2 6.1-185.1 269.9-290.1 423.2v-433.6c30.9-6.4 54.1-33.8 54.1-66.6 0-37.6-30.4-68-68-68-37.6 0-68 30.4-68 68 0 32.8 23.1 60.1 53.9 66.5v474.6c-26.5 38.7-43.9 64.1-45.3 66.3-16.2 25.2-41.1 39.6-67.6 43.1v-764.8c31.4-6.3 55-33.9 55-67.2 0-37.9-30.6-68.5-68.5-68.5-37.9 0-68.5 30.6-68.5 68.5 0 32.9 23.1 60.3 54 67v764.6c-26-3.9-50.9-18.3-68-43.1-1.5-2.2-18.7-27.4-45-65.8v-350.6c30.9-6.5 54-33.8 54-66.6 0-37.6-30.4-68-68-68-37.6 0-68 30.4-68 68 0 32.4 22.6 59.5 53 66.3v308.5c-105-153.7-284.8-416.8-288-421.8-16.8-26-16.8-74.2 0-101zm444-130c-15.5 0-28-12.5-28-28 0-15.5 12.5-28 28-28 15.5 0 28 12.5 28 28 0 15.5-12.5 28-28 28zm-141.5 306c-15.2 0-27.5-12.3-27.5-27.5 0-15.2 12.3-27.5 27.5-27.5 15.2 0 27.5 12.3 27.5 27.5 0 15.2-12.3 27.5-27.5 27.5zm282.5-124c-15.5 0-28-12.5-28-28 0-15.5 12.5-28 28-28 15.5 0 28 12.5 28 28 0 15.5-12.5 28-28 28z"/>
		</g>
	</g>
</svg>